<svg width="32" height="32" viewBox="0 0 32 32" fill="none" xmlns="http://www.w3.org/2000/svg">
<path d="M29.4726 12.082C28.9876 12.191 28.6826 12.672 28.7916 13.157C28.9956 14.067 29.0996 15.024 29.0996 16C29.0996 19.742 27.5136 23.114 24.9886 25.503C23.6706 23.628 21.8146 22.236 19.6946 21.476C21.4506 20.287 22.6076 18.276 22.6076 16C22.6076 12.356 19.6436 9.39201 15.9996 9.39201C12.3556 9.39201 9.39161 12.356 9.39161 16C9.39161 18.276 10.5486 20.287 12.3046 21.476C10.1846 22.236 8.32861 23.628 7.01061 25.503C4.48561 23.114 2.89961 19.742 2.89961 16C2.89961 8.77701 8.77661 2.90001 15.9996 2.90001C16.9756 2.90001 17.9326 3.00401 18.8426 3.20801C19.3266 3.31901 19.8096 3.01201 19.9176 2.52701C20.0266 2.04201 19.7216 1.56101 19.2366 1.45201C18.1976 1.21801 17.1086 1.10001 15.9996 1.10001C7.78361 1.10001 1.09961 7.78401 1.09961 16C1.09961 24.216 7.78361 30.9 15.9996 30.9C24.2156 30.9 30.8996 24.216 30.8996 16C30.8996 14.891 30.7816 13.802 30.5476 12.763C30.4396 12.278 29.9576 11.974 29.4726 12.082ZM11.1906 16C11.1906 13.349 13.3476 11.191 15.9996 11.191C18.6516 11.191 20.8086 13.348 20.8086 16C20.8086 18.652 18.6506 20.809 15.9996 20.809C13.3486 20.809 11.1906 18.651 11.1906 16ZM8.40461 26.653C10.1086 24.148 12.9426 22.61 15.9996 22.61C19.0566 22.61 21.8916 24.149 23.5946 26.653C21.4496 28.187 18.8316 29.1 15.9996 29.1C13.1676 29.1 10.5496 28.187 8.40461 26.653Z" fill="#42AAFF"/>
<path d="M25.7286 11.441C27.1096 11.441 28.4086 10.903 29.3846 9.92601C30.3616 8.95101 30.8996 7.65201 30.8996 6.27101C30.8996 4.89001 30.3616 3.59101 29.3846 2.61501C28.4086 1.63801 27.1096 1.10001 25.7286 1.10001C24.3476 1.10001 23.0486 1.63801 22.0726 2.61501C21.0956 3.59201 20.5576 4.89001 20.5576 6.27101C20.5576 7.65201 21.0956 8.95101 22.0716 9.92701C23.0486 10.904 24.3476 11.441 25.7286 11.441ZM28.1126 8.65401C27.0586 9.70801 25.3636 9.87601 24.0866 9.18601L28.6526 4.62001C28.9356 5.12001 29.1006 5.68101 29.1006 6.27101C29.0996 7.17101 28.7496 8.01801 28.1126 8.65401ZM23.3456 3.88701C23.9816 3.25001 24.8286 2.90001 25.7286 2.90001C26.3186 2.90001 26.8796 3.06401 27.3796 3.34801L22.8056 7.92201C22.5226 7.42201 22.3576 6.86201 22.3576 6.27101C22.3576 5.37101 22.7086 4.52401 23.3456 3.88701Z" fill="#FF0000"/>
</svg>
