<svg width="52" height="52" viewBox="0 0 52 52" fill="none" xmlns="http://www.w3.org/2000/svg">
<path d="M33.9157 18.66L32.8167 40.743C32.8039 40.9991 32.6932 41.2405 32.5075 41.4173C32.3217 41.5941 32.0752 41.6928 31.8187 41.693H31.7687C31.6374 41.6866 31.5085 41.6543 31.3896 41.598C31.2707 41.5418 31.1641 41.4626 31.0759 41.3651C30.9876 41.2675 30.9195 41.1535 30.8754 41.0296C30.8312 40.9057 30.812 40.7743 30.8187 40.643L31.9127 18.66H26.9967V40.693C26.9967 40.9582 26.8914 41.2125 26.7038 41.4001C26.5163 41.5876 26.2619 41.693 25.9967 41.693C25.7315 41.693 25.4772 41.5876 25.2896 41.4001C25.1021 41.2125 24.9967 40.9582 24.9967 40.693V18.66H20.0797L21.1737 40.643C21.1805 40.7743 21.1612 40.9057 21.1171 41.0296C21.073 41.1535 21.0048 41.2675 20.9166 41.3651C20.8283 41.4626 20.7217 41.5418 20.6028 41.598C20.4839 41.6543 20.3551 41.6866 20.2237 41.693H20.1737C19.9173 41.6928 19.6707 41.5941 19.485 41.4173C19.2993 41.2405 19.1885 40.9991 19.1757 40.743L18.0777 18.66H9.85473C9.76773 18.66 9.68173 18.65 9.59473 18.647L12.1547 46.05C12.2507 47.131 12.7488 48.1367 13.5506 48.8681C14.3524 49.5996 15.3994 50.0035 16.4847 50H35.5047C37.7647 50 39.6247 48.3 39.8347 46.05L42.3947 18.647C42.3107 18.651 42.2287 18.66 42.1447 18.66H33.9157Z" fill="black"/>
<path d="M42.1452 8.85H34.6252V6.63C34.6252 4.07 32.5552 2 29.9952 2H21.9952C19.4452 2 17.3652 4.07 17.3652 6.63V8.85H9.85523C7.92523 8.85 6.36523 10.41 6.36523 12.34V13.17C6.36523 15.09 7.92523 16.66 9.85523 16.66H42.1452C43.07 16.6574 43.9562 16.2888 44.6101 15.6349C45.2641 14.981 45.6326 14.0948 45.6352 13.17V12.34C45.6352 10.41 44.0652 8.85 42.1452 8.85ZM32.6252 8.85H19.3652V6.63C19.3652 5.18 20.5452 4 21.9952 4H29.9952C31.4452 4 32.6252 5.18 32.6252 6.63V8.85Z" fill="#FC0000"/>
</svg>
