<svg width="46" height="46" viewBox="0 0 46 46" fill="none" xmlns="http://www.w3.org/2000/svg">
<g clip-path="url(#clip0_8092_194)">
<path d="M17.0805 39.2424C16.56 39.7649 15.7774 40.5469 15.5167 40.8077C15.0537 41.2201 13.6658 42.8714 12.2373 43.4749C10.8313 44.0644 9.55183 43.8427 9.55183 43.8427L7.52051 43.8455L8.15503 44.5629H43.1256C43.9219 44.5629 44.5631 43.9218 44.5631 43.1254V40.6799C44.5631 39.8836 43.9219 39.2424 43.1256 39.2424H17.0805Z" fill="url(#paint0_linear_8092_194)"/>
<path d="M26.0029 8.70428L37.3052 20.0065L43.5579 13.7468C44.8989 12.4041 44.8997 10.2441 43.5579 8.90226L37.0989 2.44455C35.802 1.16018 33.6786 1.04008 32.2557 2.44455L26.0029 8.70428Z" fill="url(#paint1_linear_8092_194)"/>
<path d="M5.23062 29.5035L4.09354 30.642C1.4375 33.159 1.4416 33.8587 1.4375 36.7543V44.5624H9.25685C11.8209 44.561 12.8224 44.5162 15.3733 41.9667L16.5329 40.8057L5.23062 29.5035Z" fill="#232323"/>
<path d="M34.6603 0.714551C33.6039 0.717192 32.5528 1.12701 31.7474 1.93728C22.5669 11.1285 14.0765 19.6286 4.72244 28.9959C3.455 30.3555 1.79692 31.5758 1.10059 33.2958C0.707069 34.3066 0.720787 35.306 0.71875 36.7534V44.5628C0.71875 44.9598 1.04053 45.2815 1.43751 45.2816H43.1253C44.3074 45.2816 45.2816 44.3075 45.2816 43.1253V40.6799C45.2816 39.4977 44.3074 38.5236 43.1253 38.5236H21.6974C20.7254 38.5098 20.7254 39.9749 21.6974 39.9611H43.1253C43.5359 39.9611 43.8441 40.2692 43.8441 40.6799V43.1253C43.8441 43.536 43.5359 43.8441 43.1253 43.8441H14.3709C15.2574 43.1479 16.1074 42.2491 17.0409 41.3144C26.0491 32.2948 35.057 23.2748 44.0659 14.2558C45.6791 12.6405 45.6805 10.0095 44.0659 8.39484L37.6069 1.93728C36.7785 1.11645 35.7167 0.711911 34.6603 0.714551ZM34.6434 2.15066C35.3264 2.14192 36.0203 2.40171 36.5905 2.95505L43.0495 9.41261C44.1185 10.4816 44.1182 12.1707 43.0495 13.2408L37.3051 18.9923L28.2982 9.98537C27.6207 9.27983 26.5763 10.3243 27.2818 11.0017L36.2887 20.0086L33.0333 23.2697L22.7475 12.9839C26.0855 9.64025 29.4247 6.29777 32.7637 2.95505C33.2885 2.43665 33.9605 2.15939 34.6434 2.15066ZM21.7311 14.0003L25.9987 18.2665L10.5034 33.7618L6.24699 29.5055L21.7311 14.0003ZM27.0151 19.2829L32.0169 24.2861L16.5328 39.7912L11.5197 34.7782L27.0151 19.2829ZM35.7131 29.0899C33.9692 29.0899 33.2906 29.303 32.1166 30.4769L30.2677 32.3271C28.7417 33.798 29.8205 35.8479 31.5129 35.8479H43.1253C44.3074 35.8479 45.2816 34.8738 45.2816 33.6917V31.2462C45.2816 30.0641 44.3074 29.0899 43.1253 29.0899H35.7131ZM5.23062 30.5218L15.5164 40.8076C14.5311 41.7939 13.3763 43.0449 12.07 43.5479C11.385 43.8019 10.486 43.9646 9.55158 43.8427L2.15907 36.46C2.16722 35.2115 2.19272 34.4586 2.44124 33.8194C2.90476 32.6931 4.07992 31.6726 5.23062 30.5218ZM35.7131 30.5274H43.1253C43.5359 30.5274 43.8441 30.8356 43.8441 31.2462V33.6917C43.8441 34.1023 43.5359 34.4104 43.1253 34.4104H31.5466C31.0134 34.4104 30.8095 33.7619 31.2574 33.3702L33.1329 31.4947C33.9494 30.6653 34.2635 30.5274 35.7131 30.5274ZM2.15626 38.4899L7.52025 43.8455H2.15626V38.4899Z" fill="#232323"/>
</g>
<defs>
<linearGradient id="paint0_linear_8092_194" x1="7.52059" y1="41.9028" x2="44.5631" y2="41.9028" gradientUnits="userSpaceOnUse">
<stop stop-color="#8BC3F3"/>
<stop offset="1" stop-color="#C6FAF4"/>
</linearGradient>
<linearGradient id="paint1_linear_8092_194" x1="35.0763" y1="17.6388" x2="44.5626" y2="10.7224" gradientUnits="userSpaceOnUse">
<stop stop-color="#8BC3F3"/>
<stop offset="1" stop-color="#C6FAF4"/>
</linearGradient>
<clipPath id="clip0_8092_194">
<rect width="46" height="46" fill="white"/>
</clipPath>
</defs>
</svg>
